TITLE ""
FILE "1Q_t_1089-1100.mp3" MP3
  TRACK 01 AUDIO
    TITLE "1Q_t_1089-1100_01"
    INDEX 01 00:00:00
  TRACK 02 AUDIO
    TITLE "1Q_t_1089-1100_02"
    INDEX 01 00:01:10
  TRACK 03 AUDIO
    TITLE "1Q_t_1089-1100_03"
    INDEX 01 00:01:22
  TRACK 04 AUDIO
    TITLE "1Q_t_1089-1100_04"
    INDEX 01 00:03:58
  TRACK 05 AUDIO
    TITLE "1Q_t_1089-1100_05"
    INDEX 01 00:03:63
  TRACK 06 AUDIO
    TITLE "1Q_t_1089-1100_06"
    INDEX 01 00:08:24
  TRACK 07 AUDIO
    TITLE "1Q_t_1089-1100_07"
    INDEX 01 00:08:73
  TRACK 08 AUDIO
    TITLE "1Q_t_1089-1100_08"
    INDEX 01 00:09:72
  TRACK 09 AUDIO
    TITLE "1Q_t_1089-1100_09"
    INDEX 01 00:10:05
  TRACK 10 AUDIO
    TITLE "1Q_t_1089-1100_10"
    INDEX 01 00:12:53
  TRACK 11 AUDIO
    TITLE "1Q_t_1089-1100_11"
    INDEX 01 00:12:61
  TRACK 12 AUDIO
    TITLE "1Q_t_1089-1100_12"
    INDEX 01 00:19:45
  TRACK 13 AUDIO
    TITLE "1Q_t_1089-1100_13"
    INDEX 01 00:20:17
  TRACK 14 AUDIO
    TITLE "1Q_t_1089-1100_14"
    INDEX 01 00:21:42
  TRACK 15 AUDIO
    TITLE "1Q_t_1089-1100_15"
    INDEX 01 00:21:50
  TRACK 16 AUDIO
    TITLE "1Q_t_1089-1100_16"
    INDEX 01 00:23:74
  TRACK 17 AUDIO
    TITLE "1Q_t_1089-1100_17"
    INDEX 01 00:24:07
  TRACK 18 AUDIO
    TITLE "1Q_t_1089-1100_18"
    INDEX 01 00:30:60
  TRACK 19 AUDIO
    TITLE "1Q_t_1089-1100_19"
    INDEX 01 00:31:34
  TRACK 20 AUDIO
    TITLE "1Q_t_1089-1100_20"
    INDEX 01 00:32:40
  TRACK 21 AUDIO
    TITLE "1Q_t_1089-1100_21"
    INDEX 01 00:32:48
  TRACK 22 AUDIO
    TITLE "1Q_t_1089-1100_22"
    INDEX 01 00:36:32
  TRACK 23 AUDIO
    TITLE "1Q_t_1089-1100_23"
    INDEX 01 00:36:37
  TRACK 24 AUDIO
    TITLE "1Q_t_1089-1100_24"
    INDEX 01 00:42:38
  TRACK 25 AUDIO
    TITLE "1Q_t_1089-1100_25"
    INDEX 01 00:43:06
  TRACK 26 AUDIO
    TITLE "1Q_t_1089-1100_26"
    INDEX 01 00:44:12
  TRACK 27 AUDIO
    TITLE "1Q_t_1089-1100_27"
    INDEX 01 00:44:19
  TRACK 28 AUDIO
    TITLE "1Q_t_1089-1100_28"
    INDEX 01 00:46:40
  TRACK 29 AUDIO
    TITLE "1Q_t_1089-1100_29"
    INDEX 01 00:46:46
  TRACK 30 AUDIO
    TITLE "1Q_t_1089-1100_30"
    INDEX 01 00:52:60
  TRACK 31 AUDIO
    TITLE "1Q_t_1089-1100_31"
    INDEX 01 00:53:30
  TRACK 32 AUDIO
    TITLE "1Q_t_1089-1100_32"
    INDEX 01 00:54:33
  TRACK 33 AUDIO
    TITLE "1Q_t_1089-1100_33"
    INDEX 01 00:54:41
  TRACK 34 AUDIO
    TITLE "1Q_t_1089-1100_34"
    INDEX 01 00:57:28
  TRACK 35 AUDIO
    TITLE "1Q_t_1089-1100_35"
    INDEX 01 00:57:34
  TRACK 36 AUDIO
    TITLE "1Q_t_1089-1100_36"
    INDEX 01 01:03:52
  TRACK 37 AUDIO
    TITLE "1Q_t_1089-1100_37"
    INDEX 01 01:04:22
  TRACK 38 AUDIO
    TITLE "1Q_t_1089-1100_38"
    INDEX 01 01:05:41
  TRACK 39 AUDIO
    TITLE "1Q_t_1089-1100_39"
    INDEX 01 01:05:49
  TRACK 40 AUDIO
    TITLE "1Q_t_1089-1100_40"
    INDEX 01 01:08:14
  TRACK 41 AUDIO
    TITLE "1Q_t_1089-1100_41"
    INDEX 01 01:08:20
  TRACK 42 AUDIO
    TITLE "1Q_t_1089-1100_42"
    INDEX 01 01:11:69
  TRACK 43 AUDIO
    TITLE "1Q_t_1089-1100_43"
    INDEX 01 01:12:39
  TRACK 44 AUDIO
    TITLE "1Q_t_1089-1100_44"
    INDEX 01 01:13:58
  TRACK 45 AUDIO
    TITLE "1Q_t_1089-1100_45"
    INDEX 01 01:13:66
  TRACK 46 AUDIO
    TITLE "1Q_t_1089-1100_46"
    INDEX 01 01:15:04
  TRACK 47 AUDIO
    TITLE "1Q_t_1089-1100_47"
    INDEX 01 01:15:12
  TRACK 48 AUDIO
    TITLE "1Q_t_1089-1100_48"
    INDEX 01 01:18:20
  TRACK 49 AUDIO
    TITLE "1Q_t_1089-1100_49"
    INDEX 01 01:18:71
  TRACK 50 AUDIO
    TITLE "1Q_t_1089-1100_50"
    INDEX 01 01:20:11
  TRACK 51 AUDIO
    TITLE "1Q_t_1089-1100_51"
    INDEX 01 01:20:19
  TRACK 52 AUDIO
    TITLE "1Q_t_1089-1100_52"
    INDEX 01 01:21:26
  TRACK 53 AUDIO
    TITLE "1Q_t_1089-1100_53"
    INDEX 01 01:21:34
  TRACK 54 AUDIO
    TITLE "1Q_t_1089-1100_54"
    INDEX 01 01:25:73
  TRACK 55 AUDIO
    TITLE "1Q_t_1089-1100_55"
    INDEX 01 01:26:45
  TRACK 56 AUDIO
    TITLE "1Q_t_1089-1100_56"
    INDEX 01 01:27:62
  TRACK 57 AUDIO
    TITLE "1Q_t_1089-1100_57"
    INDEX 01 01:27:68
  TRACK 58 AUDIO
    TITLE "1Q_t_1089-1100_58"
    INDEX 01 01:30:72
  TRACK 59 AUDIO
    TITLE "1Q_t_1089-1100_59"
    INDEX 01 01:31:05
  TRACK 60 AUDIO
    TITLE "1Q_t_1089-1100_60"
    INDEX 01 01:34:25
  TRACK 61 AUDIO
    TITLE "1Q_t_1089-1100_61"
    INDEX 01 01:34:70
  TRACK 62 AUDIO
    TITLE "1Q_t_1089-1100_62"
    INDEX 01 01:36:12
  TRACK 63 AUDIO
    TITLE "1Q_t_1089-1100_63"
    INDEX 01 01:36:24
  TRACK 64 AUDIO
    TITLE "1Q_t_1089-1100_64"
    INDEX 01 01:37:55
  TRACK 65 AUDIO
    TITLE "1Q_t_1089-1100_65"
    INDEX 01 01:37:63
  TRACK 66 AUDIO
    TITLE "1Q_t_1089-1100_66"
    INDEX 01 01:42:27
  TRACK 67 AUDIO
    TITLE "1Q_t_1089-1100_67"
    INDEX 01 01:42:74
  TRACK 68 AUDIO
    TITLE "1Q_t_1089-1100_68"
    INDEX 01 01:44:04
  TRACK 69 AUDIO
    TITLE "1Q_t_1089-1100_69"
    INDEX 01 01:44:49
  TRACK 70 AUDIO
    TITLE "1Q_t_1089-1100_70"
    INDEX 01 01:46:07
  TRACK 71 AUDIO
    TITLE "1Q_t_1089-1100_71"
    INDEX 01 01:46:18
  TRACK 72 AUDIO
    TITLE "1Q_t_1089-1100_72"
    INDEX 01 01:47:47
  TRACK 73 AUDIO
    TITLE "1Q_t_1089-1100_73"
    INDEX 01 01:47:55
  TRACK 74 AUDIO
    TITLE "1Q_t_1089-1100_74"
    INDEX 01 01:53:34
